<?xml version="1.0" standalone="no"?>
<!DOCTYPE svg PUBLIC "-//W3C//DTD SVG 20010904//EN"
 "http://www.w3.org/TR/2001/REC-SVG-20010904/DTD/svg10.dtd">
<svg version="1.0" xmlns="http://www.w3.org/2000/svg"
 width="1200.000000pt" height="1770.000000pt" viewBox="0 0 1200.000000 1770.000000"
 preserveAspectRatio="xMidYMid meet">

<g transform="translate(0.000000,1770.000000) scale(0.100000,-0.100000)"
fill="#000000" stroke="none">
<path d="M10 8855 l0 -8845 5995 0 5995 0 0 8845 0 8845 -5995 0 -5995 0 0
-8845z m11728 1753 l2 -6828 -3265 0 c-2355 0 -3270 -3 -3287 -11 -13 -6 -86
-92 -163 -191 l-140 -181 -5 574 -5 574 -225 5 -225 5 -2 184 -2 184 -88 23
c-356 92 -703 286 -974 542 l-84 80 -160 -94 c-88 -51 -164 -93 -170 -93 -8
-1 -151 242 -477 810 l-28 48 160 91 c88 50 160 97 160 104 0 7 -13 64 -29
127 -53 203 -65 312 -65 554 0 233 18 385 65 554 17 60 18 75 7 82 -7 5 -82
48 -165 96 -84 48 -153 90 -153 94 0 8 478 839 490 852 4 4 77 -33 164 -82 86
-50 159 -91 162 -91 4 0 53 44 109 98 267 257 603 452 937 543 l88 24 2 195 3
195 250 2 250 2 3 935 2 934 33 20 c17 11 100 54 182 97 83 43 233 122 335
175 102 54 376 197 610 320 723 379 1215 637 1465 768 498 262 570 299 573
297 2 -2 -80 -160 -181 -352 -299 -564 -951 -1795 -1437 -2713 -248 -470 -485
-916 -525 -990 -40 -74 -121 -227 -180 -340 -59 -113 -205 -389 -325 -615
-119 -225 -291 -549 -381 -720 l-164 -310 -3 933 -2 932 -38 0 c-20 0 -96 -7
-167 -15 -821 -95 -1490 -699 -1669 -1506 -184 -836 204 -1698 952 -2112 177
-99 391 -176 585 -212 72 -13 272 -35 320 -35 16 0 17 53 17 975 l0 976 31
-16 c17 -9 32 -15 33 -13 1 2 75 116 163 253 88 138 326 507 528 820 203 314
563 872 800 1240 237 369 588 913 780 1210 192 297 388 601 435 675 48 74 257
398 465 720 207 322 521 809 697 1082 300 465 324 499 374 532 142 95 224 287
195 459 -27 159 -123 285 -268 355 -76 36 -81 37 -193 37 -99 0 -124 -3 -178
-25 -79 -31 -143 -79 -200 -150 -39 -47 -123 -106 -601 -418 -306 -200 -637
-416 -736 -481 -146 -96 -801 -524 -1595 -1043 -63 -41 -248 -162 -410 -268
-162 -106 -301 -195 -307 -197 -10 -4 -13 554 -13 2771 l0 2776 3428 -2 3427
-3 3 -6827z m-9323 5497 l79 -255 310 -2 311 -3 -240 -147 c-132 -81 -246
-152 -254 -157 -14 -9 10 -98 134 -504 8 -27 11 -47 6 -45 -5 2 -102 88 -215
191 -114 104 -212 186 -219 184 -7 -3 -111 -89 -232 -190 -121 -102 -222 -183
-224 -181 -2 1 41 120 94 264 54 143 96 262 94 263 -2 2 -110 70 -239 151
-129 82 -242 155 -250 162 -12 12 30 14 287 14 l302 0 83 255 c46 140 86 254
89 255 3 0 41 -115 84 -255z m6638 -1745 c80 -30 165 -111 203 -192 26 -56 29
-74 29 -158 0 -88 -3 -101 -33 -162 -41 -83 -120 -158 -200 -189 -79 -31 -195
-31 -275 0 -76 30 -164 111 -202 188 -28 53 -30 67 -30 163 0 123 18 172 94
253 111 119 263 155 414 97z m-590 -496 c75 -202 241 -324 442 -324 41 0 75
-2 75 -5 0 -3 -262 -412 -582 -908 -884 -1371 -1195 -1853 -2067 -3207 -442
-685 -808 -1249 -814 -1255 -5 -5 8 24 30 65 22 41 638 1204 1368 2583 l1328
2509 -34 33 -34 34 -380 -200 c-209 -110 -488 -257 -620 -326 -651 -341 -2138
-1120 -2510 -1315 -231 -121 -444 -233 -474 -250 -134 -74 -26 1 412 287 259
170 1107 723 1882 1230 776 507 1532 1001 1680 1098 l270 176 6 -92 c4 -51 13
-110 22 -133z m3272 -11919 l0 -1670 -5727 -3 -5728 -2 0 1665 0 1665 2112 -2
2112 -3 161 -197 c92 -113 172 -202 187 -208 54 -24 70 -10 245 215 l168 215
3235 -3 3235 -2 0 -1670z"/>
<path d="M9525 16507 c-67 -23 -99 -43 -149 -97 -98 -105 -147 -267 -147 -487
0 -229 49 -390 150 -491 78 -78 126 -96 251 -97 94 0 110 3 155 27 124 65 205
202 236 401 15 96 6 317 -15 404 -37 149 -126 271 -233 320 -69 32 -184 41
-248 20z m217 -220 c90 -69 124 -191 115 -412 -4 -101 -10 -143 -27 -186 -54
-140 -166 -201 -275 -150 -88 41 -137 131 -156 287 -24 208 22 388 119 461 39
30 50 33 112 33 62 0 73 -3 112 -33z"/>
<path d="M10438 16507 c-97 -37 -172 -106 -222 -204 -81 -161 -97 -490 -31
-682 33 -97 63 -147 123 -203 66 -62 101 -78 182 -85 168 -14 280 68 345 253
37 104 36 106 -45 143 -84 37 -90 38 -90 9 0 -40 -34 -119 -68 -159 -61 -71
-151 -77 -221 -13 -77 69 -106 190 -98 403 9 244 72 351 208 351 73 0 119 -31
153 -104 14 -30 26 -61 26 -69 0 -12 15 -10 81 11 l80 27 -6 34 c-11 58 -60
155 -101 200 -55 61 -123 93 -209 98 -43 2 -84 -2 -107 -10z"/>
<path d="M6068 16248 l-3 -253 -42 -3 -43 -3 0 -70 0 -69 45 0 45 0 0 -255 0
-255 148 0 c178 1 278 13 332 40 93 48 153 144 191 307 19 81 21 113 16 270
-3 140 -9 192 -25 245 -43 143 -126 252 -211 279 -20 7 -126 14 -243 16 l-208
5 -2 -254z m377 51 c58 -16 101 -67 127 -152 29 -96 32 -322 5 -440 -32 -138
-74 -167 -237 -167 l-110 0 0 155 0 155 90 0 90 0 0 70 0 70 -90 0 -90 0 0
160 0 160 88 0 c48 0 105 -5 127 -11z"/>
<path d="M7136 16433 c-39 -140 -106 -380 -126 -448 -11 -38 -39 -135 -61
-215 -22 -80 -58 -207 -79 -283 -22 -75 -40 -140 -40 -142 0 -3 39 -4 87 -3
l87 3 9 40 c5 22 17 69 27 105 10 36 21 77 24 93 l6 27 172 -2 171 -3 28 -100
c16 -55 32 -113 37 -130 l8 -30 88 -3 c88 -3 88 -3 84 20 -3 13 -31 111 -63
218 -31 107 -61 209 -65 225 -4 17 -28 100 -53 185 -93 318 -115 396 -131 453
l-17 57 -87 0 -87 0 -19 -67z m162 -404 c30 -111 56 -207 59 -215 4 -11 -16
-14 -115 -14 l-119 0 28 108 c16 59 41 155 56 215 15 59 29 107 33 107 3 0 29
-90 58 -201z"/>
<path d="M7760 15920 l0 -581 78 3 77 3 3 578 2 577 -80 0 -80 0 0 -580z"/>
<path d="M8412 15923 l3 -578 80 0 80 0 3 253 2 252 165 0 165 0 2 -252 3
-253 80 0 80 0 3 578 2 577 -85 0 -85 0 0 -230 0 -230 -165 0 -165 0 0 230 0
230 -85 0 -85 0 2 -577z"/>
<path d="M7160 15135 l0 -105 80 0 80 0 0 105 0 105 -80 0 -80 0 0 -105z"/>
<path d="M9550 15135 l0 -105 75 0 75 0 0 105 0 105 -75 0 -75 0 0 -105z"/>
<path d="M2975 2924 c-31 -48 -155 -255 -155 -259 0 -3 46 -5 103 -5 l102 1
115 102 c64 56 137 121 164 145 l49 42 -180 0 -181 0 -17 -26z"/>
<path d="M3975 2616 c-170 -42 -287 -153 -331 -313 -17 -62 -19 -110 -19 -578
1 -548 6 -619 55 -719 72 -149 229 -228 455 -228 174 0 270 37 381 147 62 61
73 78 92 140 21 68 42 263 42 398 l0 57 -220 0 -220 0 0 -190 c0 -148 -3 -197
-15 -219 -26 -51 -104 -47 -128 6 -9 21 -12 166 -12 588 0 642 -3 618 76 623
73 5 73 4 79 -267 l5 -236 218 -3 217 -2 0 107 c0 142 -16 332 -34 399 -38
146 -165 257 -334 293 -69 14 -243 13 -307 -3z"/>
<path d="M9005 2617 c-159 -41 -278 -158 -322 -317 -16 -59 -18 -117 -18 -595
0 -476 2 -536 18 -594 61 -221 229 -334 491 -332 234 2 392 105 459 299 27 80
41 524 28 912 -8 266 -10 290 -33 351 -47 128 -135 214 -263 261 -74 26 -280
35 -360 15z m212 -317 c17 -34 19 -1131 2 -1179 -21 -59 -100 -62 -116 -4 -4
15 -8 282 -8 593 0 529 1 568 18 594 15 23 24 27 55 24 27 -2 40 -9 49 -28z"/>
<path d="M1390 1706 l0 -896 303 0 c294 0 450 9 529 31 53 14 111 69 137 128
30 71 45 228 38 406 -11 262 -44 320 -226 392 -23 9 -20 11 37 32 73 28 126
80 142 142 7 24 12 102 11 174 -1 186 -27 279 -102 360 -93 101 -159 115 -561
122 l-308 5 0 -896z m539 565 c27 -27 33 -69 29 -209 -4 -142 -12 -157 -91
-168 l-47 -7 0 202 0 201 45 0 c31 0 51 -6 64 -19z m-44 -661 c71 -16 75 -27
75 -236 0 -113 -4 -192 -11 -207 -14 -30 -48 -47 -94 -47 l-35 0 0 250 c0 193
3 250 13 250 6 0 30 -5 52 -10z"/>
<path d="M2675 2568 c-3 -18 -30 -235 -60 -483 -31 -247 -78 -629 -105 -849
-28 -219 -50 -405 -50 -412 0 -11 41 -14 224 -14 l223 0 7 108 c3 59 9 131 12
160 l6 52 78 0 78 0 6 -47 c3 -27 8 -99 12 -161 l6 -112 219 0 c205 0 219 1
219 18 0 10 -34 259 -75 553 -41 294 -95 683 -120 864 -25 182 -47 336 -50
343 -3 9 -75 12 -314 12 l-310 0 -6 -32z m349 -507 c7 -118 42 -512 51 -573
l5 -38 -75 0 -75 0 0 43 c0 37 20 219 61 570 7 59 16 107 19 107 4 0 10 -49
14 -109z"/>
<path d="M4810 1705 l0 -895 215 0 215 0 0 375 0 375 65 0 65 0 0 -375 0 -375
220 0 220 0 -2 893 -3 892 -217 3 -218 2 0 -320 0 -320 -65 0 -65 0 0 320 0
320 -215 0 -215 0 0 -895z"/>
<path d="M6360 1705 l0 -895 215 0 215 0 0 377 c0 207 2 374 4 372 3 -2 41
-164 86 -359 44 -195 83 -363 86 -372 5 -16 24 -18 225 -18 169 0 219 3 219
13 0 6 -60 227 -134 490 l-133 478 123 397 c68 218 124 400 124 405 0 4 -91 6
-202 5 l-201 -3 -94 -334 c-51 -184 -95 -337 -98 -339 -3 -3 -5 148 -5 336 l0
342 -215 0 -215 0 0 -895z"/>
<path d="M7500 1705 l0 -895 215 0 215 0 0 375 0 375 65 0 65 0 0 -375 0 -375
215 0 215 0 0 895 0 895 -215 0 -215 0 0 -320 0 -320 -65 0 -65 0 0 320 0 320
-215 0 -215 0 0 -895z"/>
<path d="M9946 2548 c-3 -29 -44 -363 -91 -743 -47 -379 -92 -746 -100 -815
-9 -69 -18 -137 -21 -153 l-6 -27 226 0 226 0 1 28 c0 15 6 86 12 157 l12 130
81 3 81 3 7 -138 c11 -207 -20 -183 238 -183 l219 0 -6 33 c-3 17 -34 244 -70
502 -140 1006 -166 1191 -172 1223 l-5 32 -313 0 -313 0 -6 -52z m364 -633
c11 -137 25 -288 30 -335 16 -141 22 -130 -65 -130 -41 0 -75 4 -75 9 0 37 57
542 81 720 3 24 11 -48 29 -264z"/>
</g>
</svg>
